BodoniModa-Black.ufo
<glyph name="eight" format="2">
  <advance width="1298"/>
  <unicode hex="0038"/>
  <outline>
    <contour>
      <point x="650" y="-20" type="curve" smooth="yes"/>
      <point x="1032" y="-20"/>
      <point x="1220" y="140"/>
      <point x="1220" y="380" type="curve" smooth="yes"/>
      <point x="1220" y="586"/>
      <point x="1082" y="733"/>
      <point x="802" y="770" type="curve"/>
      <point x="1047" y="807"/>
      <point x="1180" y="935"/>
      <point x="1180" y="1120" type="curve" smooth="yes"/>
      <point x="1180" y="1340"/>
      <point x="992" y="1520"/>
      <point x="650" y="1520" type="curve" smooth="yes"/>
      <point x="308" y="1520"/>
      <point x="120" y="1340"/>
      <point x="120" y="1120" type="curve" smooth="yes"/>
      <point x="120" y="935"/>
      <point x="253" y="807"/>
      <point x="498" y="770" type="curve"/>
      <point x="218" y="733"/>
      <point x="80" y="586"/>
      <point x="80" y="380" type="curve" smooth="yes"/>
      <point x="80" y="140"/>
      <point x="268" y="-20"/>
    </contour>
    <contour>
      <point x="650" y="52" type="curve" smooth="yes"/>
      <point x="552" y="52"/>
      <point x="520" y="152"/>
      <point x="520" y="380" type="curve" smooth="yes"/>
      <point x="520" y="608"/>
      <point x="552" y="716"/>
      <point x="650" y="716" type="curve" smooth="yes"/>
      <point x="748" y="716"/>
      <point x="780" y="608"/>
      <point x="780" y="380" type="curve" smooth="yes"/>
      <point x="780" y="152"/>
      <point x="748" y="52"/>
    </contour>
    <contour>
      <point x="650" y="824" type="curve" smooth="yes"/>
      <point x="590" y="824"/>
      <point x="560" y="852"/>
      <point x="560" y="1120" type="curve" smooth="yes"/>
      <point x="560" y="1368"/>
      <point x="590" y="1448"/>
      <point x="650" y="1448" type="curve" smooth="yes"/>
      <point x="710" y="1448"/>
      <point x="740" y="1368"/>
      <point x="740" y="1120" type="curve" smooth="yes"/>
      <point x="740" y="852"/>
      <point x="710" y="824"/>
    </contour>
  </outline>
</glyph>
<glyph name="L" format="2">
  <advance width="1318"/>
  <unicode hex="004C"/>
  <anchor x="716" y="0" name="bottom"/>
  <anchor x="716" y="0" name="cedilla"/>
  <anchor x="424" y="750" name="center"/>
  <anchor x="414" y="1500" name="top"/>
  <anchor x="839" y="920" name="topright"/>
  <outline>
    <contour>
      <point x="28" y="0" type="line"/>
      <point x="1280" y="0" type="line"/>
      <point x="1280" y="450" type="line"/>
      <point x="1208" y="450" type="line"/>
      <point x="1148" y="196"/>
      <point x="980" y="72"/>
      <point x="708" y="72" type="curve" smooth="yes"/>
      <point x="640" y="72" type="line"/>
      <point x="640" y="1428" type="line"/>
      <point x="820" y="1428" type="line"/>
      <point x="820" y="1500" type="line"/>
      <point x="28" y="1500" type="line"/>
      <point x="28" y="1428" type="line"/>
      <point x="210" y="1428" type="line"/>
      <point x="210" y="72" type="line"/>
      <point x="28" y="72" type="line"/>
    </contour>
  </outline>
</glyph>
<glyph name="X" format="2">
  <advance width="1698"/>
  <unicode hex="0058"/>
  <anchor x="796" y="0" name="bottom"/>
  <anchor x="904" y="1500" name="top"/>
  <outline>
    <contour>
      <point x="880" y="0" type="line"/>
      <point x="1680" y="0" type="line"/>
      <point x="1680" y="72" type="line"/>
      <point x="1510" y="72" type="line"/>
      <point x="724" y="1428" type="line"/>
      <point x="892" y="1428" type="line"/>
      <point x="892" y="1500" type="line"/>
      <point x="90" y="1500" type="line"/>
      <point x="90" y="1428" type="line"/>
      <point x="251" y="1428" type="line"/>
      <point x="1031" y="72" type="line"/>
      <point x="880" y="72" type="line"/>
    </contour>
    <contour>
      <point x="20" y="0" type="line"/>
      <point x="500" y="0" type="line"/>
      <point x="500" y="72" type="line"/>
      <point x="315" y="72" type="line"/>
      <point x="856" y="834" type="line"/>
      <point x="770" y="834" type="line"/>
      <point x="227" y="72" type="line"/>
      <point x="20" y="72" type="line"/>
    </contour>
    <contour>
      <point x="824" y="754" type="line"/>
      <point x="914" y="754" type="line"/>
      <point x="1372" y="1428" type="line"/>
      <point x="1570" y="1428" type="line"/>
      <point x="1570" y="1500" type="line"/>
      <point x="1130" y="1500" type="line"/>
      <point x="1130" y="1428" type="line"/>
      <point x="1293" y="1428" type="line"/>
    </contour>
  </outline>
</glyph>
<glyph name="backslash" format="2">
  <advance width="1038"/>
  <unicode hex="005C"/>
  <outline>
    <contour>
      <point x="876" y="-300" type="line"/>
      <point x="960" y="-300" type="line"/>
      <point x="164" y="1560" type="line"/>
      <point x="80" y="1560" type="line"/>
    </contour>
  </outline>
</glyph>
<glyph name="q" format="2">
  <advance width="1344"/>
  <unicode hex="0071"/>
  <anchor x="426" y="0" name="bottom"/>
  <anchor x="516" y="920" name="top"/>
  <outline>
    <contour>
      <point x="656" y="-500" type="line"/>
      <point x="1316" y="-500" type="line"/>
      <point x="1316" y="-428" type="line"/>
      <point x="1176" y="-428" type="line"/>
      <point x="1176" y="848" type="line"/>
      <point x="1316" y="848" type="line"/>
      <point x="1316" y="920" type="line"/>
      <point x="796" y="920" type="line"/>
      <point x="796" y="753" type="line"/>
      <point x="731" y="874"/>
      <point x="621" y="940"/>
      <point x="484" y="940" type="curve" smooth="yes"/>
      <point x="266" y="940"/>
      <point x="60" y="760"/>
      <point x="60" y="460" type="curve" smooth="yes"/>
      <point x="60" y="160"/>
      <point x="266" y="-18"/>
      <point x="484" y="-18" type="curve" smooth="yes"/>
      <point x="621" y="-18"/>
      <point x="731" y="47"/>
      <point x="796" y="167" type="curve"/>
      <point x="796" y="-428" type="line"/>
      <point x="656" y="-428" type="line"/>
    </contour>
    <contour>
      <point x="600" y="96" type="curve" smooth="yes"/>
      <point x="532" y="96"/>
      <point x="490" y="168"/>
      <point x="490" y="460" type="curve" smooth="yes"/>
      <point x="490" y="752"/>
      <point x="532" y="828"/>
      <point x="600" y="828" type="curve" smooth="yes"/>
      <point x="676" y="828"/>
      <point x="796" y="698"/>
      <point x="796" y="460" type="curve" smooth="yes"/>
      <point x="796" y="228"/>
      <point x="676" y="96"/>
    </contour>
  </outline>
</glyph>
<glyph name="s" format="2">
  <advance width="938"/>
  <unicode hex="0073"/>
  <anchor x="508" y="0" name="bottom"/>
  <anchor x="456" y="920" name="top"/>
  <outline>
    <contour>
      <point x="70" y="-20" type="line"/>
      <point x="132" y="-20" type="line"/>
      <point x="236" y="81" type="line"/>
      <point x="309" y="15"/>
      <point x="397" y="-20"/>
      <point x="508" y="-20" type="curve" smooth="yes"/>
      <point x="682" y="-20"/>
      <point x="892" y="66"/>
      <point x="892" y="304" type="curve" smooth="yes"/>
      <point x="892" y="700"/>
      <point x="296" y="632"/>
      <point x="296" y="772" type="curve" smooth="yes"/>
      <point x="296" y="828"/>
      <point x="380" y="860"/>
      <point x="436" y="860" type="curve" smooth="yes"/>
      <point x="598" y="860"/>
      <point x="672" y="764"/>
      <point x="752" y="660" type="curve"/>
      <point x="824" y="660" type="line"/>
      <point x="824" y="940" type="line"/>
      <point x="760" y="940" type="line"/>
      <point x="657" y="858" type="line"/>
      <point x="598" y="906"/>
      <point x="526" y="938"/>
      <point x="434" y="938" type="curve" smooth="yes"/>
      <point x="246" y="938"/>
      <point x="94" y="818"/>
      <point x="94" y="630" type="curve" smooth="yes"/>
      <point x="94" y="218"/>
      <point x="680" y="274"/>
      <point x="680" y="140" type="curve" smooth="yes"/>
      <point x="680" y="82"/>
      <point x="588" y="56"/>
      <point x="488" y="56" type="curve" smooth="yes"/>
      <point x="344" y="56"/>
      <point x="244" y="134"/>
      <point x="144" y="320" type="curve"/>
      <point x="70" y="320" type="line"/>
    </contour>
  </outline>
</glyph>
<glyph name="braceleft" format="2">
  <advance width="782"/>
  <unicode hex="007B"/>
  <outline>
    <contour>
      <point x="724" y="1560" type="line"/>
      <point x="252" y="1560"/>
      <point x="108" y="1460"/>
      <point x="108" y="1242" type="curve" smooth="yes"/>
      <point x="108" y="1008"/>
      <point x="230" y="918"/>
      <point x="230" y="792" type="curve" smooth="yes"/>
      <point x="230" y="710"/>
      <point x="168" y="686"/>
      <point x="108" y="666" type="curve"/>
      <point x="108" y="594" type="line"/>
      <point x="168" y="574"/>
      <point x="230" y="554"/>
      <point x="230" y="472" type="curve" smooth="yes"/>
      <point x="230" y="346"/>
      <point x="108" y="254"/>
      <point x="108" y="20" type="curve" smooth="yes"/>
      <point x="108" y="-198"/>
      <point x="252" y="-300"/>
      <point x="724" y="-300" type="curve"/>
      <point x="724" y="-228" type="line"/>
      <point x="600" y="-228"/>
      <point x="536" y="-158"/>
      <point x="536" y="-32" type="curve" smooth="yes"/>
      <point x="536" y="80"/>
      <point x="604" y="180"/>
      <point x="604" y="340" type="curve" smooth="yes"/>
      <point x="604" y="493"/>
      <point x="512" y="585"/>
      <point x="191" y="630" type="curve"/>
      <point x="512" y="675"/>
      <point x="604" y="769"/>
      <point x="604" y="922" type="curve" smooth="yes"/>
      <point x="604" y="1082"/>
      <point x="536" y="1182"/>
      <point x="536" y="1294" type="curve" smooth="yes"/>
      <point x="536" y="1420"/>
      <point x="600" y="1486"/>
      <point x="724" y="1486" type="curve"/>
    </contour>
  </outline>
</glyph>
<glyph name="yen" format="2">
  <advance width="1528"/>
  <unicode hex="00A5"/>
  <anchor x="776" y="0" name="bottom"/>
  <anchor x="854" y="1500" name="top"/>
  <outline>
    <contour>
      <point x="570" y="0" type="line"/>
      <point x="1000" y="0" type="line"/>
      <point x="1000" y="734" type="line"/>
      <point x="1398" y="1496" type="line"/>
      <point x="1314" y="1502" type="line"/>
      <point x="980" y="860" type="line"/>
      <point x="640" y="1500" type="line"/>
      <point x="140" y="1500" type="line"/>
      <point x="570" y="720" type="line"/>
    </contour>
    <contour>
      <point x="392" y="0" type="line"/>
      <point x="1200" y="0" type="line"/>
      <point x="1200" y="72" type="line"/>
      <point x="392" y="72" type="line"/>
    </contour>
    <contour>
      <point x="220" y="304" type="line"/>
      <point x="1330.006" y="304" type="line"/>
      <point x="1330.006" y="376" type="line"/>
      <point x="220" y="376" type="line"/>
    </contour>
    <contour>
      <point x="220" y="605" type="line"/>
      <point x="1330.006" y="605" type="line"/>
      <point x="1330.006" y="677" type="line"/>
      <point x="220" y="677" type="line"/>
    </contour>
    <contour>
      <point x="20" y="1428" type="line"/>
      <point x="840" y="1428" type="line"/>
      <point x="840" y="1500" type="line"/>
      <point x="20" y="1500" type="line"/>
    </contour>
    <contour>
      <point x="1090" y="1428" type="line"/>
      <point x="1510" y="1428" type="line"/>
      <point x="1510" y="1500" type="line"/>
      <point x="1090" y="1500" type="line"/>
    </contour>
  </outline>
</glyph>
<glyph name="threesuperior" format="2">
  <advance width="898"/>
  <unicode hex="00B3"/>
  <outline>
    <contour>
      <point x="423.2" y="902" type="curve" smooth="yes"/>
      <point x="592.4" y="902"/>
      <point x="783.2" y="998"/>
      <point x="783.2" y="1154" type="curve" smooth="yes"/>
      <point x="783.2" y="1286.6"/>
      <point x="630.8" y="1406"/>
      <point x="341.6" y="1406" type="curve"/>
      <point x="341.6" y="1379" type="line"/>
      <point x="484.4" y="1379"/>
      <point x="518" y="1254.8"/>
      <point x="518" y="1166" type="curve" smooth="yes"/>
      <point x="518" y="1017.2"/>
      <point x="476" y="949.4"/>
      <point x="375.2" y="949.4" type="curve" smooth="yes"/>
      <point x="269.6" y="949.4"/>
      <point x="161" y="1038.8"/>
      <point x="161" y="1134.8" type="curve"/>
      <point x="117.2" y="1134.8" type="line"/>
      <point x="117.2" y="1074.8"/>
      <point x="179.6" y="1022"/>
      <point x="244.4" y="1022" type="curve" smooth="yes"/>
      <point x="309.8" y="1022"/>
      <point x="372.2" y="1076.6"/>
      <point x="372.2" y="1145" type="curve" smooth="yes"/>
      <point x="372.2" y="1218.2"/>
      <point x="314.6" y="1271.6"/>
      <point x="248" y="1271.6" type="curve" smooth="yes"/>
      <point x="176" y="1271.6"/>
      <point x="116" y="1214"/>
      <point x="116" y="1134.8" type="curve" smooth="yes"/>
      <point x="116" y="1023.8"/>
      <point x="222.8" y="902"/>
    </contour>
    <contour>
      <point x="341.6" y="1395.2" type="line"/>
      <point x="618.8" y="1395.2"/>
      <point x="747.2" y="1503.2"/>
      <point x="747.2" y="1623.2" type="curve" smooth="yes"/>
      <point x="747.2" y="1755.8"/>
      <point x="569" y="1824.8"/>
      <point x="435.2" y="1824.8" type="curve" smooth="yes"/>
      <point x="312.8" y="1824.8"/>
      <point x="151.4" y="1742"/>
      <point x="151.4" y="1631" type="curve" smooth="yes"/>
      <point x="151.4" y="1551.8"/>
      <point x="214.4" y="1496.6"/>
      <point x="281" y="1496.6" type="curve" smooth="yes"/>
      <point x="341" y="1496.6"/>
      <point x="408.8" y="1545.2"/>
      <point x="408.8" y="1623.2" type="curve" smooth="yes"/>
      <point x="408.8" y="1695.2"/>
      <point x="346.4" y="1746.8"/>
      <point x="281" y="1746.8" type="curve" smooth="yes"/>
      <point x="220.4" y="1746.8"/>
      <point x="152.6" y="1697"/>
      <point x="152.6" y="1631" type="curve"/>
      <point x="196.4" y="1631" type="line"/>
      <point x="196.4" y="1721"/>
      <point x="313.4" y="1776.8"/>
      <point x="381.2" y="1776.8" type="curve" smooth="yes"/>
      <point x="458" y="1776.8"/>
      <point x="482" y="1712"/>
      <point x="482" y="1623.2" type="curve" smooth="yes"/>
      <point x="482" y="1546.4"/>
      <point x="472.4" y="1422.2"/>
      <point x="341.6" y="1422.2" type="curve"/>
    </contour>
  </outline>
</glyph>
<glyph name="onequarter" format="2">
  <advance width="1400"/>
  <unicode hex="00BC"/>
  <outline>
    <contour>
      <point x="114" y="-200" type="line"/>
      <point x="188" y="-200" type="line"/>
      <point x="1154" y="1300" type="line"/>
      <point x="1080" y="1300" type="line"/>
    </contour>
    <contour>
      <point x="44" y="712" type="line"/>
      <point x="590" y="712" type="line"/>
      <point x="590" y="755.2" type="line"/>
      <point x="44" y="755.2" type="line"/>
    </contour>
    <contour>
      <point x="846" y="-206" type="line"/>
      <point x="1308" y="-206" type="line"/>
      <point x="1308" y="-162.8" type="line"/>
      <point x="1218" y="-162.8" type="line"/>
      <point x="1218" y="694" type="line"/>
      <point x="1038" y="694" type="line"/>
      <point x="582" y="30.4" type="line"/>
      <point x="1350" y="30.4" type="line"/>
      <point x="1350" y="74.8" type="line"/>
      <point x="660" y="74.8" type="line"/>
      <point x="960" y="506.8" type="line"/>
      <point x="960" y="-162.8" type="line"/>
      <point x="846" y="-162.8" type="line"/>
    </contour>
    <contour>
      <point x="200" y="724" type="line"/>
      <point x="458" y="724" type="line"/>
      <point x="458" y="1612" type="line"/>
      <point x="64.4" y="1612" type="line"/>
      <point x="64.4" y="1568.8" type="line"/>
      <point x="200" y="1568.8" type="line"/>
    </contour>
  </outline>
</glyph>
<glyph name="cedillacomb" format="2">
  <unicode hex="0327"/>
  <anchor x="478" y="0" name="_bottom"/>
  <outline>
    <contour>
      <point x="274" y="-510" type="line"/>
      <point x="634" y="-510"/>
      <point x="732" y="-410"/>
      <point x="732" y="-310" type="curve" smooth="yes"/>
      <point x="732" y="-198"/>
      <point x="622" y="-154"/>
      <point x="418" y="-148" type="curve"/>
      <point x="540" y="12" type="line"/>
      <point x="448" y="12" type="line"/>
      <point x="268" y="-228" type="line"/>
      <point x="338" y="-228"/>
      <point x="430" y="-246"/>
      <point x="430" y="-350" type="curve" smooth="yes"/>
      <point x="430" y="-418"/>
      <point x="392" y="-438"/>
      <point x="274" y="-438" type="curve"/>
    </contour>
  </outline>
</glyph>
<glyph name="approxequal" format="2">
  <advance width="1200"/>
  <unicode hex="2248"/>
  <outline>
    <contour>
      <point x="798" y="864" type="curve" smooth="yes"/>
      <point x="936" y="864"/>
      <point x="1048" y="1006"/>
      <point x="1012" y="1156" type="curve"/>
      <point x="929" y="1156" type="line"/>
      <point x="961" y="1036"/>
      <point x="910" y="947"/>
      <point x="788" y="947" type="curve" smooth="yes"/>
      <point x="728" y="947"/>
      <point x="685" y="980"/>
      <point x="635" y="1038" type="curve" smooth="yes"/>
      <point x="582" y="1099"/>
      <point x="504" y="1174"/>
      <point x="388" y="1174" type="curve" smooth="yes"/>
      <point x="216" y="1174"/>
      <point x="96" y="1022"/>
      <point x="136" y="882" type="curve"/>
      <point x="219" y="882" type="line"/>
      <point x="191" y="1000"/>
      <point x="250" y="1091"/>
      <point x="388" y="1091" type="curve" smooth="yes"/>
      <point x="448" y="1091"/>
      <point x="505" y="1061"/>
      <point x="557" y="1000" type="curve" smooth="yes"/>
      <point x="611" y="936"/>
      <point x="690" y="864"/>
    </contour>
    <contour>
      <point x="798" y="364" type="curve" smooth="yes"/>
      <point x="936" y="364"/>
      <point x="1048" y="506"/>
      <point x="1012" y="656" type="curve"/>
      <point x="929" y="656" type="line"/>
      <point x="961" y="536"/>
      <point x="910" y="447"/>
      <point x="788" y="447" type="curve" smooth="yes"/>
      <point x="728" y="447"/>
      <point x="685" y="480"/>
      <point x="635" y="538" type="curve" smooth="yes"/>
      <point x="582" y="599"/>
      <point x="504" y="674"/>
      <point x="388" y="674" type="curve" smooth="yes"/>
      <point x="216" y="674"/>
      <point x="96" y="522"/>
      <point x="136" y="382" type="curve"/>
      <point x="219" y="382" type="line"/>
      <point x="191" y="500"/>
      <point x="250" y="591"/>
      <point x="388" y="591" type="curve" smooth="yes"/>
      <point x="448" y="591"/>
      <point x="505" y="561"/>
      <point x="557" y="500" type="curve" smooth="yes"/>
      <point x="611" y="436"/>
      <point x="690" y="364"/>
    </contour>
  </outline>
</glyph>
<glyph name="uniF8E9" format="2">
  <advance width="1118"/>
  <unicode hex="F8E9"/>
  <outline>
    <contour>
      <point x="558" y="1592" type="curve" smooth="yes"/>
      <point x="302" y="1592"/>
      <point x="96" y="1386"/>
      <point x="96" y="1130" type="curve" smooth="yes"/>
      <point x="96" y="874"/>
      <point x="302" y="668"/>
      <point x="558" y="668" type="curve" smooth="yes"/>
      <point x="814" y="668"/>
      <point x="1020" y="874"/>
      <point x="1020" y="1130" type="curve" smooth="yes"/>
      <point x="1020" y="1386"/>
      <point x="814" y="1592"/>
    </contour>
    <contour>
      <point x="558" y="711" type="curve" smooth="yes"/>
      <point x="328" y="711"/>
      <point x="140" y="900"/>
      <point x="140" y="1130" type="curve" smooth="yes"/>
      <point x="140" y="1360"/>
      <point x="328" y="1549"/>
      <point x="558" y="1549" type="curve" smooth="yes"/>
      <point x="788" y="1549"/>
      <point x="976" y="1360"/>
      <point x="976" y="1130" type="curve" smooth="yes"/>
      <point x="976" y="900"/>
      <point x="788" y="711"/>
    </contour>
    <contour>
      <point x="576" y="886" type="curve" smooth="yes"/>
      <point x="487" y="886"/>
      <point x="464" y="999"/>
      <point x="464" y="1130" type="curve" smooth="yes"/>
      <point x="464" y="1261"/>
      <point x="487" y="1374"/>
      <point x="576" y="1374" type="curve" smooth="yes"/>
      <point x="645" y="1374"/>
      <point x="680" y="1320"/>
      <point x="733" y="1230" type="curve"/>
      <point x="760" y="1230" type="line"/>
      <point x="760" y="1400" type="line"/>
      <point x="737" y="1400" type="line"/>
      <point x="670" y="1368" type="line"/>
      <point x="642" y="1393"/>
      <point x="610" y="1407"/>
      <point x="569" y="1407" type="curve" smooth="yes"/>
      <point x="394" y="1407"/>
      <point x="295" y="1290"/>
      <point x="295" y="1130" type="curve" smooth="yes"/>
      <point x="295" y="970"/>
      <point x="394" y="853"/>
      <point x="569" y="853" type="curve" smooth="yes"/>
      <point x="614" y="853"/>
      <point x="650" y="867"/>
      <point x="679" y="891" type="curve"/>
      <point x="744" y="860" type="line"/>
      <point x="767" y="860" type="line"/>
      <point x="767" y="1030" type="line"/>
      <point x="740" y="1030" type="line"/>
      <point x="688" y="948"/>
      <point x="667" y="886"/>
    </contour>
  </outline>
</glyph>
<glyph name="fi" format="2">
  <advance width="1370"/>
  <unicode hex="FB01"/>
  <outline>
    <contour>
      <point x="202" y="0" type="line"/>
      <point x="562" y="0" type="line"/>
      <point x="562" y="1080" type="line" smooth="yes"/>
      <point x="562" y="1354"/>
      <point x="666" y="1447"/>
      <point x="846" y="1447" type="curve" smooth="yes"/>
      <point x="966" y="1447"/>
      <point x="1147" y="1394"/>
      <point x="1147" y="1272" type="curve"/>
      <point x="1220" y="1272" type="line"/>
      <point x="1220" y="1382"/>
      <point x="1121" y="1458"/>
      <point x="1017" y="1458" type="curve" smooth="yes"/>
      <point x="917" y="1458"/>
      <point x="816" y="1377"/>
      <point x="816" y="1257" type="curve" smooth="yes"/>
      <point x="816" y="1127"/>
      <point x="917" y="1058"/>
      <point x="1017" y="1058" type="curve" smooth="yes"/>
      <point x="1128" y="1058"/>
      <point x="1222" y="1140"/>
      <point x="1222" y="1272" type="curve" smooth="yes"/>
      <point x="1222" y="1426"/>
      <point x="1028" y="1520"/>
      <point x="846" y="1520" type="curve" smooth="yes"/>
      <point x="516" y="1520"/>
      <point x="202" y="1385"/>
      <point x="202" y="1023" type="curve" smooth="yes"/>
    </contour>
    <contour>
      <point x="22" y="0" type="line"/>
      <point x="1360" y="0" type="line"/>
      <point x="1360" y="73" type="line"/>
      <point x="22" y="73" type="line"/>
    </contour>
    <contour>
      <point x="840" y="0" type="line"/>
      <point x="1220" y="0" type="line"/>
      <point x="1220" y="920" type="line"/>
      <point x="22" y="920" type="line"/>
      <point x="22" y="847" type="line"/>
      <point x="840" y="847" type="line"/>
    </contour>
  </outline>
</glyph>
<glyph name="caroncomb.alt" format="2">
  <anchor x="274" y="920" name="_topright"/>
  <outline>
    <contour>
      <point x="315" y="972" type="line"/>
      <point x="536" y="972"/>
      <point x="685" y="1107"/>
      <point x="685" y="1300" type="curve" smooth="yes"/>
      <point x="685" y="1433"/>
      <point x="597" y="1520"/>
      <point x="498" y="1520" type="curve" smooth="yes"/>
      <point x="402" y="1520"/>
      <point x="318" y="1441"/>
      <point x="318" y="1349" type="curve" smooth="yes"/>
      <point x="318" y="1260"/>
      <point x="382" y="1181"/>
      <point x="486" y="1181" type="curve" smooth="yes"/>
      <point x="571" y="1181"/>
      <point x="647" y="1250"/>
      <point x="647" y="1300" type="curve"/>
      <point x="632" y="1300" type="line"/>
      <point x="632" y="1108"/>
      <point x="482" y="1025"/>
      <point x="315" y="1025" type="curve"/>
    </contour>
  </outline>
</glyph>
<glyph name="eth.sc" format="2">
  <advance width="1467"/>
  <outline>
    <contour>
      <point x="100" y="514" type="line"/>
      <point x="780.002" y="514" type="line"/>
      <point x="780.002" y="586" type="line"/>
      <point x="100" y="586" type="line"/>
    </contour>
    <component base="d.sc"/>
  </outline>
</glyph>
<glyph name="f_f_i" format="2">
  <advance width="2010"/>
  <outline>
    <contour>
      <point x="1480" y="0" type="line"/>
      <point x="1860" y="0" type="line"/>
      <point x="1860" y="920" type="line"/>
      <point x="22" y="920" type="line"/>
      <point x="22" y="847" type="line"/>
      <point x="1480" y="847" type="line"/>
    </contour>
    <contour>
      <point x="22" y="0" type="line"/>
      <point x="2000" y="0" type="line"/>
      <point x="2000" y="73" type="line"/>
      <point x="22" y="73" type="line"/>
    </contour>
    <contour>
      <point x="202" y="0" type="line"/>
      <point x="562" y="0" type="line"/>
      <point x="562" y="980" type="line" smooth="yes"/>
      <point x="562" y="1234"/>
      <point x="671" y="1347"/>
      <point x="791" y="1347" type="curve" smooth="yes"/>
      <point x="931" y="1347"/>
      <point x="1047" y="1284"/>
      <point x="1047" y="1172" type="curve"/>
      <point x="1120" y="1172" type="line"/>
      <point x="1120" y="1232"/>
      <point x="1021" y="1348"/>
      <point x="917" y="1348" type="curve" smooth="yes"/>
      <point x="817" y="1348"/>
      <point x="716" y="1277"/>
      <point x="716" y="1157" type="curve" smooth="yes"/>
      <point x="716" y="1027"/>
      <point x="817" y="958"/>
      <point x="917" y="958" type="curve" smooth="yes"/>
      <point x="1028" y="958"/>
      <point x="1122" y="1040"/>
      <point x="1122" y="1172" type="curve" smooth="yes"/>
      <point x="1122" y="1316"/>
      <point x="973" y="1420"/>
      <point x="741" y="1420" type="curve" smooth="yes"/>
      <point x="461" y="1420"/>
      <point x="202" y="1215"/>
      <point x="202" y="923" type="curve" smooth="yes"/>
    </contour>
    <contour>
      <point x="842" y="0" type="line"/>
      <point x="1202" y="0" type="line"/>
      <point x="1202" y="1080" type="line" smooth="yes"/>
      <point x="1202" y="1334"/>
      <point x="1286" y="1447"/>
      <point x="1466" y="1447" type="curve" smooth="yes"/>
      <point x="1626" y="1447"/>
      <point x="1787" y="1374"/>
      <point x="1787" y="1272" type="curve"/>
      <point x="1860" y="1272" type="line"/>
      <point x="1860" y="1382"/>
      <point x="1761" y="1448"/>
      <point x="1657" y="1448" type="curve" smooth="yes"/>
      <point x="1557" y="1448"/>
      <point x="1456" y="1377"/>
      <point x="1456" y="1257" type="curve" smooth="yes"/>
      <point x="1456" y="1127"/>
      <point x="1557" y="1058"/>
      <point x="1657" y="1058" type="curve" smooth="yes"/>
      <point x="1768" y="1058"/>
      <point x="1862" y="1140"/>
      <point x="1862" y="1272" type="curve" smooth="yes"/>
      <point x="1862" y="1396"/>
      <point x="1718" y="1520"/>
      <point x="1466" y="1520" type="curve" smooth="yes"/>
      <point x="1086" y="1520"/>
      <point x="842" y="1335"/>
      <point x="842" y="1023" type="curve" smooth="yes"/>
    </contour>
  </outline>
</glyph>
<glyph name="five.tosf" format="2">
  <advance width="1400"/>
  <outline>
    <contour>
      <point x="582" y="-525.018" type="curve" smooth="yes"/>
      <point x="934" y="-525.018"/>
      <point x="1229" y="-344.349"/>
      <point x="1229" y="-97.117" type="curve" smooth="yes"/>
      <point x="1229" y="188.15"/>
      <point x="986" y="329.832"/>
      <point x="674" y="329.832" type="curve" smooth="yes"/>
      <point x="392" y="329.832"/>
      <point x="321" y="205.266"/>
      <point x="289" y="134.9" type="curve"/>
      <point x="361" y="134.9" type="line"/>
      <point x="390" y="178.641"/>
      <point x="445" y="236.645"/>
      <point x="550" y="236.645" type="curve" smooth="yes"/>
      <point x="698" y="236.645"/>
      <point x="780" y="120.637"/>
      <point x="780" y="-97.117" type="curve" smooth="yes"/>
      <point x="780" y="-275.885"/>
      <point x="720" y="-463.21"/>
      <point x="522" y="-463.21" type="curve" smooth="yes"/>
      <point x="374" y="-463.21"/>
      <point x="206" y="-374.777"/>
      <point x="206" y="-222.635" type="curve"/>
      <point x="133" y="-222.635" type="line"/>
      <point x="133" y="-279.688"/>
      <point x="252" y="-429.929"/>
      <point x="364" y="-429.929" type="curve" smooth="yes"/>
      <point x="483" y="-429.929"/>
      <point x="598" y="-334.84"/>
      <point x="598" y="-211.224" type="curve" smooth="yes"/>
      <point x="598" y="-78.099"/>
      <point x="494" y="9.382"/>
      <point x="364" y="9.382" type="curve" smooth="yes"/>
      <point x="223" y="9.382"/>
      <point x="131" y="-87.608"/>
      <point x="131" y="-222.635" type="curve" smooth="yes"/>
      <point x="131" y="-408.058"/>
      <point x="328" y="-525.018"/>
    </contour>
    <contour>
      <point x="244" y="134.9" type="line"/>
      <point x="317" y="134.9" type="line"/>
      <point x="317" y="520.961" type="line"/>
      <point x="1160" y="520.961" type="line"/>
      <point x="1160" y="1023.982" type="line"/>
      <point x="1087" y="1023.982" type="line"/>
      <point x="1087" y="920.335" type="line"/>
      <point x="244" y="920.335" type="line"/>
    </contour>
  </outline>
</glyph>
<glyph name="l.sc" format="2">
  <advance width="1139"/>
  <anchor x="705" y="0" name="bottom"/>
  <anchor x="705" y="0" name="cedilla"/>
  <anchor x="416" y="460" name="center"/>
  <anchor x="413" y="1020" name="top"/>
  <anchor x="793" y="463" name="topright"/>
  <outline>
    <contour>
      <point x="85" y="0" type="line"/>
      <point x="1119" y="0" type="line"/>
      <point x="1119" y="350" type="line"/>
      <point x="1045" y="350" type="line"/>
      <point x="945" y="156"/>
      <point x="870" y="73"/>
      <point x="656" y="73" type="curve" smooth="yes"/>
      <point x="646" y="73" type="line"/>
      <point x="646" y="947" type="line"/>
      <point x="776" y="947" type="line"/>
      <point x="776" y="1020" type="line"/>
      <point x="85" y="1020" type="line"/>
      <point x="85" y="947" type="line"/>
      <point x="216" y="947" type="line"/>
      <point x="216" y="73" type="line"/>
      <point x="85" y="73" type="line"/>
    </contour>
  </outline>
</glyph>
<glyph name="nine.osf" format="2">
  <advance width="1318"/>
  <outline>
    <contour>
      <point x="212" y="-519.961" type="line"/>
      <point x="816" y="-519.961"/>
      <point x="1220" y="-127.468"/>
      <point x="1220" y="333.284" type="curve" smooth="yes"/>
      <point x="1220" y="731.465"/>
      <point x="974" y="940.036"/>
      <point x="632" y="940.036" type="curve" smooth="yes"/>
      <point x="290" y="940.036"/>
      <point x="60" y="731.465"/>
      <point x="60" y="447.05" type="curve" smooth="yes"/>
      <point x="60" y="124.713"/>
      <point x="316" y="-17.495"/>
      <point x="558" y="-17.495" type="curve" smooth="yes"/>
      <point x="782" y="-17.495"/>
      <point x="812" y="149.362"/>
      <point x="812" y="390.167" type="curve"/>
      <point x="760" y="390.167" type="line"/>
      <point x="760" y="137.986"/>
      <point x="708" y="79.207"/>
      <point x="642" y="79.207" type="curve" smooth="yes"/>
      <point x="564" y="79.207"/>
      <point x="520" y="130.401"/>
      <point x="520" y="447.05" type="curve" smooth="yes"/>
      <point x="520" y="725.777"/>
      <point x="530" y="871.776"/>
      <point x="628" y="871.776" type="curve" smooth="yes"/>
      <point x="726" y="871.776"/>
      <point x="760" y="706.816"/>
      <point x="760" y="390.167" type="curve"/>
      <point x="770" y="219.518" type="line"/>
      <point x="770" y="-106.611"/>
      <point x="580" y="-455.494"/>
      <point x="212" y="-455.494" type="curve"/>
    </contour>
  </outline>
</glyph>
<glyph name="three.tosf" format="2">
  <advance width="1400"/>
  <outline>
    <contour>
      <point x="662" y="-519.96" type="curve" smooth="yes"/>
      <point x="944" y="-519.96"/>
      <point x="1262" y="-368.283"/>
      <point x="1262" y="-121.808" type="curve" smooth="yes"/>
      <point x="1262" y="87.696"/>
      <point x="1008" y="276.344"/>
      <point x="526" y="276.344" type="curve"/>
      <point x="526" y="233.685" type="line"/>
      <point x="764" y="233.685"/>
      <point x="820" y="37.453"/>
      <point x="820" y="-102.848" type="curve" smooth="yes"/>
      <point x="820" y="-337.947"/>
      <point x="750" y="-445.069"/>
      <point x="582" y="-445.069" type="curve" smooth="yes"/>
      <point x="406" y="-445.069"/>
      <point x="225" y="-303.82"/>
      <point x="225" y="-152.143" type="curve"/>
      <point x="152" y="-152.143" type="line"/>
      <point x="152" y="-246.941"/>
      <point x="256" y="-330.364"/>
      <point x="364" y="-330.364" type="curve" smooth="yes"/>
      <point x="473" y="-330.364"/>
      <point x="577" y="-244.097"/>
      <point x="577" y="-136.028" type="curve" smooth="yes"/>
      <point x="577" y="-20.374"/>
      <point x="481" y="63.996"/>
      <point x="370" y="63.996" type="curve" smooth="yes"/>
      <point x="250" y="63.996"/>
      <point x="150" y="-27.01"/>
      <point x="150" y="-152.143" type="curve" smooth="yes"/>
      <point x="150" y="-327.52"/>
      <point x="328" y="-519.96"/>
    </contour>
    <contour>
      <point x="526" y="259.28" type="line"/>
      <point x="988" y="259.28"/>
      <point x="1202" y="429.916"/>
      <point x="1202" y="619.512" type="curve" smooth="yes"/>
      <point x="1202" y="829.016"/>
      <point x="905" y="938.034"/>
      <point x="682" y="938.034" type="curve" smooth="yes"/>
      <point x="478" y="938.034"/>
      <point x="209" y="807.212"/>
      <point x="209" y="631.836" type="curve" smooth="yes"/>
      <point x="209" y="506.703"/>
      <point x="314" y="419.489"/>
      <point x="425" y="419.489" type="curve" smooth="yes"/>
      <point x="525" y="419.489"/>
      <point x="638" y="496.275"/>
      <point x="638" y="619.512" type="curve" smooth="yes"/>
      <point x="638" y="733.27"/>
      <point x="534" y="814.796"/>
      <point x="425" y="814.796" type="curve" smooth="yes"/>
      <point x="324" y="814.796"/>
      <point x="211" y="736.114"/>
      <point x="211" y="631.836" type="curve"/>
      <point x="284" y="631.836" type="line"/>
      <point x="284" y="774.033"/>
      <point x="479" y="862.195"/>
      <point x="592" y="862.195" type="curve" smooth="yes"/>
      <point x="720" y="862.195"/>
      <point x="760" y="759.813"/>
      <point x="760" y="619.512" type="curve" smooth="yes"/>
      <point x="760" y="498.171"/>
      <point x="744" y="301.939"/>
      <point x="526" y="301.939" type="curve"/>
    </contour>
  </outline>
</glyph>
<glyph name="w.sc" format="2">
  <advance width="1676"/>
  <anchor x="938" y="0" name="bottom"/>
  <anchor x="908" y="1020" name="top"/>
  <outline>
    <contour>
      <point x="1075" y="-20" type="line"/>
      <point x="1255" y="-20" type="line"/>
      <point x="1601" y="1011" type="line"/>
      <point x="1523" y="1020" type="line"/>
      <point x="1328" y="416" type="line"/>
      <point x="1093" y="1020" type="line"/>
      <point x="692" y="1020" type="line"/>
    </contour>
    <contour>
      <point x="506" y="-20" type="line"/>
      <point x="686" y="-20" type="line"/>
      <point x="955" y="781" type="line"/>
      <point x="893" y="836" type="line"/>
      <point x="759" y="416" type="line"/>
      <point x="548" y="1020" type="line"/>
      <point x="129" y="1020" type="line"/>
    </contour>
    <contour>
      <point x="0" y="947" type="line"/>
      <point x="1273" y="947" type="line"/>
      <point x="1273" y="1020" type="line"/>
      <point x="0" y="1020" type="line"/>
    </contour>
    <contour>
      <point x="1393" y="947" type="line"/>
      <point x="1676" y="947" type="line"/>
      <point x="1676" y="1020" type="line"/>
      <point x="1393" y="1020" type="line"/>
    </contour>
  </outline>
</glyph>
<glyph name="x.sc" format="2">
  <advance width="1394"/>
  <anchor x="652" y="0" name="bottom"/>
  <anchor x="782" y="1020" name="top"/>
  <outline>
    <contour>
      <point x="825" y="0" type="line"/>
      <point x="1285" y="0" type="line"/>
      <point x="602" y="1020" type="line"/>
      <point x="150" y="1020" type="line"/>
    </contour>
    <contour>
      <point x="30" y="0" type="line"/>
      <point x="395" y="0" type="line"/>
      <point x="395" y="73" type="line"/>
      <point x="30" y="73" type="line"/>
    </contour>
    <contour>
      <point x="99" y="0" type="line"/>
      <point x="202" y="0" type="line"/>
      <point x="714" y="524" type="line"/>
      <point x="611" y="524" type="line"/>
    </contour>
    <contour>
      <point x="660" y="0" type="line"/>
      <point x="1364" y="0" type="line"/>
      <point x="1364" y="73" type="line"/>
      <point x="660" y="73" type="line"/>
    </contour>
    <contour>
      <point x="81" y="947" type="line"/>
      <point x="760" y="947" type="line"/>
      <point x="760" y="1020" type="line"/>
      <point x="81" y="1020" type="line"/>
    </contour>
    <contour>
      <point x="729" y="584" type="line"/>
      <point x="836" y="584" type="line"/>
      <point x="1259" y="1016" type="line"/>
      <point x="1161" y="1016" type="line"/>
    </contour>
    <contour>
      <point x="987" y="947" type="line"/>
      <point x="1313" y="947" type="line"/>
      <point x="1313" y="1020" type="line"/>
      <point x="987" y="1020" type="line"/>
    </contour>
  </outline>
</glyph>
